<?xml version="1.0" encoding="UTF-8"?>
<svg id="Layer_1" data-name="Layer 1" xmlns="http://www.w3.org/2000/svg" viewBox="0 0 152.82 45.11">
  <defs>
    <style>
      .cls-1 {
        fill: #231f20;
      }
    </style>
  </defs>
  <path class="cls-1" d="M2.95,9.03h19.87C18.17,15.3,10.56,21.21,0,26.75c.36.72.89,1.7,1.61,2.95,1.61,2.87,2.68,4.83,3.22,5.91,3.04-1.61,5.73-3.22,8.06-4.83v14.33h39.34v-26.95h-24.04c2.69-2.86,5.01-5.91,6.98-9.13h17.06V0H2.95v9.03ZM23.9,27.46h17.84v9.76h-17.84v-9.76Z"/>
  <rect class="cls-1" x="62.41" y="34.1" width="39.22" height="11.01"/>
  <rect class="cls-1" x="62.41" y="17.18" width="39.22" height="10.11"/>
  <rect class="cls-1" x="62.41" y=".54" width="39.22" height="10.11"/>
  <polygon class="cls-1" points="118.47 .54 109.56 45.11 121.55 45.11 130.47 .54 118.47 .54"/>
  <polygon class="cls-1" points="141.64 34.1 148.35 .54 137.35 .54 128.44 45.11 130.22 45.11 139.43 45.11 151.03 45.11 152.82 34.1 141.64 34.1"/>
</svg>