<?xml version="1.0" encoding="UTF-8"?>
<svg id="Layer_1" data-name="Layer 1" xmlns="http://www.w3.org/2000/svg" viewBox="0 0 448.52 63.52">
  <defs>
    <style>
      .cls-1 {
        fill: #231f20;
      }

      .cls-2 {
        fill: #c9926c;
      }

      .cls-3 {
        fill: #fff;
      }
    </style>
  </defs>
  <g>
    <path class="cls-1" d="M94.51,20.55h-13.76v-4.22c0-1.97-.18-3.22-.53-3.76-.35-.54-.94-.81-1.76-.81-.89,0-1.57.36-2.02,1.09-.46.73-.69,1.83-.69,3.31,0,1.9.26,3.33.77,4.29.49.96,1.89,2.12,4.19,3.48,6.59,3.91,10.74,7.12,12.46,9.63,1.71,2.51,2.57,6.56,2.57,12.14,0,4.06-.47,7.05-1.42,8.97-.95,1.92-2.79,3.54-5.51,4.84-2.72,1.3-5.89,1.95-9.5,1.95-3.96,0-7.35-.75-10.15-2.25s-4.64-3.41-5.51-5.73c-.87-2.32-1.3-5.62-1.3-9.89v-3.73h13.76v6.93c0,2.13.19,3.51.58,4.12.39.61,1.07.91,2.06.91s1.72-.39,2.2-1.16c.48-.77.72-1.92.72-3.45,0-3.35-.46-5.55-1.37-6.58-.94-1.03-3.25-2.76-6.93-5.17-3.68-2.44-6.12-4.21-7.32-5.31-1.2-1.1-2.19-2.63-2.97-4.57-.79-1.95-1.18-4.43-1.18-7.46,0-4.36.56-7.55,1.67-9.57,1.11-2.02,2.91-3.59,5.4-4.73,2.49-1.14,5.49-1.71,9.01-1.71,3.85,0,7.12.62,9.83,1.86,2.71,1.24,4.5,2.81,5.38,4.7.88,1.89,1.32,5.1,1.32,9.62v2.25Z"/>
    <path class="cls-1" d="M125.99,3.31l8.47,56.96h-15.14l-.79-10.24h-5.3l-.89,10.24h-15.31l7.55-56.96h21.41ZM118.14,39.93c-.75-6.45-1.5-14.42-2.26-23.92-1.51,10.91-2.46,18.88-2.84,23.92h5.1Z"/>
    <path class="cls-1" d="M136.97,3.31h25.08v11.4h-10.27v10.8h9.15v10.84h-9.15v23.92h-14.81V3.31Z"/>
    <path class="cls-1" d="M189.8,3.31l8.47,56.96h-15.14l-.79-10.24h-5.3l-.89,10.24h-15.31l7.55-56.96h21.41ZM181.95,39.93c-.75-6.45-1.5-14.42-2.26-23.92-1.51,10.91-2.46,18.88-2.84,23.92h5.1Z"/>
    <path class="cls-1" d="M233.85,3.31v56.96h-12.98l-7.7-25.89v25.89h-12.38V3.31h12.38l8.3,25.65V3.31h12.38Z"/>
  </g>
  <g>
    <path class="cls-2" d="M284.2,23.75h-15.84v-5.53c0-3.49-.15-5.67-.45-6.55-.3-.88-1.02-1.32-2.14-1.32-.98,0-1.64.38-1.99,1.13-.35.75-.53,2.68-.53,5.79v29.23c0,2.73.18,4.53.53,5.4.35.87,1.05,1.3,2.11,1.3,1.15,0,1.94-.49,2.35-1.47.41-.98.62-2.88.62-5.72v-7.22h-3.2v-9.25h18.55v32.69h-9.95l-1.46-4.36c-1.08,1.88-2.44,3.29-4.08,4.23-1.64.94-3.58,1.41-5.82,1.41-2.66,0-5.15-.65-7.47-1.94-2.32-1.29-4.08-2.89-5.29-4.8-1.2-1.91-1.96-3.91-2.26-6-.3-2.09-.45-5.24-.45-9.42v-18.1c0-5.82.31-10.04.94-12.68.63-2.63,2.43-5.05,5.4-7.24,2.97-2.19,6.82-3.29,11.53-3.29s8.49.95,11.55,2.86c3.06,1.91,5.05,4.17,5.98,6.79.93,2.62,1.39,6.43,1.39,11.42v2.63Z"/>
    <path class="cls-2" d="M326.53,37c0,6.12-.14,10.45-.43,13-.29,2.55-1.19,4.87-2.71,6.98-1.52,2.11-3.57,3.72-6.15,4.85s-5.59,1.69-9.03,1.69-6.19-.53-8.78-1.6-4.68-2.66-6.26-4.8c-1.58-2.13-2.52-4.45-2.82-6.96-.3-2.51-.45-6.9-.45-13.17v-10.42c0-6.12.14-10.45.43-13,.29-2.55,1.19-4.87,2.71-6.98,1.52-2.11,3.57-3.72,6.15-4.85,2.58-1.13,5.59-1.69,9.03-1.69,3.26,0,6.19.53,8.78,1.6,2.6,1.07,4.68,2.67,6.26,4.8,1.58,2.13,2.52,4.45,2.82,6.96.3,2.51.45,6.9.45,13.17v10.42ZM310.69,16.98c0-2.83-.16-4.65-.47-5.44-.31-.79-.96-1.19-1.94-1.19-.83,0-1.46.32-1.9.96-.44.64-.66,2.53-.66,5.66v28.44c0,3.54.14,5.72.43,6.55.29.83.96,1.24,2.01,1.24s1.77-.48,2.07-1.43c.3-.95.45-3.22.45-6.81v-27.99Z"/>
  </g>
  <g>
    <path d="M30.33,23.44c.49.5,1.13.75,1.77.75s1.28-.25,1.77-.75l2.12-2.17,2.12,2.17c.49.5,1.13.75,1.77.75s1.28-.25,1.77-.75c.98-1,.98-2.61,0-3.61l-2.12-2.17,2.12-2.17c.98-1,.98-2.61,0-3.61-.98-1-2.56-1-3.54,0l-2.12,2.17-2.12-2.17c-.98-1-2.56-1-3.54,0-.98,1-.98,2.61,0,3.61l2.12,2.17-2.12,2.17c-.98,1-.98,2.61,0,3.61Z"/>
    <path d="M10.3,23.44c.49.5,1.13.75,1.77.75s1.28-.25,1.77-.75l2.12-2.17,2.12,2.17c.49.5,1.13.75,1.77.75s1.28-.25,1.77-.75c.98-1,.98-2.61,0-3.61l-2.12-2.17,2.12-2.17c.98-1,.98-2.61,0-3.61-.98-1-2.56-1-3.54,0l-2.12,2.17-2.12-2.17c-.98-1-2.56-1-3.54,0-.98,1-.98,2.61,0,3.61l2.12,2.17-2.12,2.17c-.98,1-.98,2.61,0,3.61Z"/>
    <path d="M40.9,27.51c-.86,0-1.56.71-1.56,1.59v13.2c0,.88.7,1.59,1.56,1.59s1.56-.71,1.56-1.59v-13.2c0-.88-.7-1.59-1.56-1.59Z"/>
    <path d="M11.73,27.51c-.86,0-1.56.71-1.56,1.59v13.2c0,.88.7,1.59,1.56,1.59s1.56-.71,1.56-1.59v-13.2c0-.88-.7-1.59-1.56-1.59Z"/>
    <path d="M33.61,27.51c-.86,0-1.56.71-1.56,1.59v17.05c0,.88.7,1.59,1.56,1.59s1.56-.71,1.56-1.59v-17.05c0-.88-.7-1.59-1.56-1.59Z"/>
    <path d="M26.32,47.75c.86,0,1.56-.71,1.56-1.59v-17.05c0-.88-.7-1.59-1.56-1.59s-1.56.71-1.56,1.59v17.05c0,.88.7,1.59,1.56,1.59Z"/>
    <path d="M19.02,27.51c-.86,0-1.56.71-1.56,1.59v17.05c0,.88.7,1.59,1.56,1.59s1.56-.71,1.56-1.59v-17.05c0-.88-.7-1.59-1.56-1.59Z"/>
    <path d="M7.99,62.37h23.15c2.82,0,5.49-1.11,7.51-3.11l10.78-10.69.08-.09c2.01-2.25,3.11-5.17,3.11-8.21V11.34c0-4.5-3.59-8.16-7.99-8.16H7.99C3.59,3.18,0,6.84,0,11.34v42.87c0,4.5,3.59,8.16,7.99,8.16ZM5.19,12.51c0-2.24,1.78-4.06,3.97-4.06h34.31c2.19,0,3.97,1.82,3.97,4.06v27.08c0,1.94-.7,3.8-1.96,5.24l-4.86,4.81c-.89.88-2.07,1.37-3.31,1.37H9.04c-2.13,0-3.85-1.76-3.85-3.93V12.51Z"/>
  </g>
  <rect x="336.61" width="111.91" height="63.47" rx="15.39" ry="15.39"/>
  <g>
    <rect class="cls-3" x="350.2" y="42.91" width="35.99" height="10.1" rx=".62" ry=".62"/>
    <rect class="cls-3" x="350.2" y="27.38" width="35.99" height="9.27" rx=".62" ry=".62"/>
    <rect class="cls-3" x="350.2" y="12.11" width="35.99" height="9.27" rx=".62" ry=".62"/>
    <path class="cls-3" d="M418.15,11.83l.07-3.14c0-.12-.1-.23-.22-.23h-7.27c-.12,0-.22.1-.22.22l-.07,3.16c0,.12-.1.22-.22.22h-18.8c-.12,0-.22.1-.22.22v39.89c0,.12.1.22.22.22h6.09c.12,0,.22-.1.22-.22v-24.47h-.01v-.93c0-.12.1-.22.22-.22h36.77c.12,0,.22-.1.22-.22v-14.05c0-.12-.1-.22-.22-.22h-16.33c-.12,0-.22-.1-.22-.23ZM427.92,20.6h-29.79c-.12,0-.22-.1-.22-.22v-2.01c0-.12.1-.22.22-.22h29.79c.12,0,.22.1.22.22v2.01c0,.12-.1.22-.22.22Z"/>
    <polygon class="cls-3" points="400.33 34.92 410.14 34.92 410.14 45.5 400.33 45.5 400.33 51.92 416.56 51.92 416.56 28.5 400.33 28.5 400.33 34.92"/>
    <rect class="cls-3" x="400.33" y="36.83" width="7.27" height="6.42" rx=".13" ry=".13"/>
    <polygon class="cls-3" points="418.42 34.92 428.23 34.92 428.23 45.5 418.42 45.5 418.42 51.92 434.65 51.92 434.65 28.5 418.42 28.5 418.42 34.92"/>
    <rect class="cls-3" x="418.42" y="36.83" width="7.27" height="6.42" rx=".13" ry=".13"/>
  </g>
</svg>