<?xml version="1.0" encoding="UTF-8"?>
<svg id="Layer_1" data-name="Layer 1" xmlns="http://www.w3.org/2000/svg" viewBox="0 0 52.63 59.19">
  <path d="M30.33,20.27c.49.5,1.13.75,1.77.75s1.28-.25,1.77-.75l2.12-2.17,2.12,2.17c.49.5,1.13.75,1.77.75s1.28-.25,1.77-.75c.98-1,.98-2.61,0-3.61l-2.12-2.17,2.12-2.17c.98-1,.98-2.61,0-3.61-.98-1-2.56-1-3.54,0l-2.12,2.17-2.12-2.17c-.98-1-2.56-1-3.54,0-.98,1-.98,2.61,0,3.61l2.12,2.17-2.12,2.17c-.98,1-.98,2.61,0,3.61Z"/>
  <path d="M10.3,20.27c.49.5,1.13.75,1.77.75s1.28-.25,1.77-.75l2.12-2.17,2.12,2.17c.49.5,1.13.75,1.77.75s1.28-.25,1.77-.75c.98-1,.98-2.61,0-3.61l-2.12-2.17,2.12-2.17c.98-1,.98-2.61,0-3.61-.98-1-2.56-1-3.54,0l-2.12,2.17-2.12-2.17c-.98-1-2.56-1-3.54,0-.98,1-.98,2.61,0,3.61l2.12,2.17-2.12,2.17c-.98,1-.98,2.61,0,3.61Z"/>
  <path d="M40.9,24.34c-.86,0-1.56.71-1.56,1.59v13.2c0,.88.7,1.59,1.56,1.59s1.56-.71,1.56-1.59v-13.2c0-.88-.7-1.59-1.56-1.59Z"/>
  <path d="M11.73,24.34c-.86,0-1.56.71-1.56,1.59v13.2c0,.88.7,1.59,1.56,1.59s1.56-.71,1.56-1.59v-13.2c0-.88-.7-1.59-1.56-1.59Z"/>
  <path d="M33.61,24.34c-.86,0-1.56.71-1.56,1.59v17.05c0,.88.7,1.59,1.56,1.59s1.56-.71,1.56-1.59v-17.05c0-.88-.7-1.59-1.56-1.59Z"/>
  <path d="M26.32,44.58c.86,0,1.56-.71,1.56-1.59v-17.05c0-.88-.7-1.59-1.56-1.59s-1.56.71-1.56,1.59v17.05c0,.88.7,1.59,1.56,1.59Z"/>
  <path d="M19.02,24.34c-.86,0-1.56.71-1.56,1.59v17.05c0,.88.7,1.59,1.56,1.59s1.56-.71,1.56-1.59v-17.05c0-.88-.7-1.59-1.56-1.59Z"/>
  <path d="M7.99,59.19h23.15c2.82,0,5.49-1.11,7.51-3.11l10.78-10.69.08-.09c2.01-2.25,3.11-5.17,3.11-8.21V8.16c0-4.5-3.59-8.16-7.99-8.16H7.99C3.59,0,0,3.66,0,8.16v42.87c0,4.5,3.59,8.16,7.99,8.16ZM5.19,9.33c0-2.24,1.78-4.06,3.97-4.06h34.31c2.19,0,3.97,1.82,3.97,4.06v27.08c0,1.94-.7,3.8-1.96,5.24l-4.86,4.81c-.89.88-2.07,1.37-3.31,1.37H9.04c-2.13,0-3.85-1.76-3.85-3.93V9.33Z"/>
</svg>